<?xml version="1.0" encoding="UTF-8" standalone="no"?>
<svg
   xmlns:dc="http://purl.org/dc/elements/1.1/"
   xmlns:cc="http://creativecommons.org/ns#"
   xmlns:rdf="http://www.w3.org/1999/02/22-rdf-syntax-ns#"
   xmlns:svg="http://www.w3.org/2000/svg"
   xmlns="http://www.w3.org/2000/svg"
   xmlns:xlink="http://www.w3.org/1999/xlink"
   xmlns:sodipodi="http://sodipodi.sourceforge.net/DTD/sodipodi-0.dtd"
   xmlns:inkscape="http://www.inkscape.org/namespaces/inkscape"
   inkscape:export-ydpi="300"
   inkscape:export-xdpi="300"
   inkscape:export-filename="/Users/mariachi-one/OneDrive - University of Sussex/msc project/models/images/world_full_v3.png"
   sodipodi:docname="world_full_v4.svg"
   inkscape:version="1.0beta2 (2b71d25, 2019-12-03)"
   id="svg1948"
   version="1.1"
   viewBox="0 0 146.08146 79.865443"
   height="79.86544mm"
   width="146.08147mm">
  <defs
     id="defs1942">
    <marker
       inkscape:stockid="Arrow2Mend"
       orient="auto"
       refY="0"
       refX="0"
       id="marker4109"
       style="overflow:visible"
       inkscape:isstock="true">
      <path
         id="path4107"
         style="fill:#ffffff;fill-opacity:1;fill-rule:evenodd;stroke:#ffffff;stroke-width:0.625;stroke-linejoin:round;stroke-opacity:1"
         d="M 8.7185878,4.0337352 -2.2072895,0.01601326 8.7185884,-4.0017078 c -1.7454984,2.3720609 -1.7354408,5.6174519 -6e-7,8.035443 z"
         transform="scale(-0.6)"
         inkscape:connector-curvature="0" />
    </marker>
    <marker
       inkscape:isstock="true"
       style="overflow:visible"
       id="Arrow2Mstart"
       refX="0"
       refY="0"
       orient="auto"
       inkscape:stockid="Arrow2Mstart">
      <path
         inkscape:connector-curvature="0"
         transform="scale(0.6)"
         d="M 8.7185878,4.0337352 -2.2072895,0.01601326 8.7185884,-4.0017078 c -1.7454984,2.3720609 -1.7354408,5.6174519 -6e-7,8.035443 z"
         style="fill:#ffffff;fill-opacity:1;fill-rule:evenodd;stroke:#ffffff;stroke-width:0.625;stroke-linejoin:round;stroke-opacity:1"
         id="path2670" />
    </marker>
    <marker
       inkscape:isstock="true"
       style="overflow:visible"
       id="Arrow1Mstart"
       refX="0"
       refY="0"
       orient="auto"
       inkscape:stockid="Arrow1Mstart">
      <path
         inkscape:connector-curvature="0"
         transform="matrix(0.4,0,0,0.4,4,0)"
         style="fill:#ffffff;fill-opacity:1;fill-rule:evenodd;stroke:#ffffff;stroke-width:1pt;stroke-opacity:1"
         d="M 0,0 5,-5 -12.5,0 5,5 Z"
         id="path2652" />
    </marker>
    <marker
       inkscape:stockid="Arrow2Mend"
       orient="auto"
       refY="0"
       refX="0"
       id="marker3106"
       style="overflow:visible"
       inkscape:isstock="true">
      <path
         inkscape:connector-curvature="0"
         id="path3104"
         style="fill:#ffffff;fill-opacity:1;fill-rule:evenodd;stroke:#ffffff;stroke-width:0.625;stroke-linejoin:round;stroke-opacity:1"
         d="M 8.7185878,4.0337352 -2.2072895,0.01601326 8.7185884,-4.0017078 c -1.7454984,2.3720609 -1.7354408,5.6174519 -6e-7,8.035443 z"
         transform="scale(-0.6)" />
    </marker>
    <marker
       inkscape:isstock="true"
       style="overflow:visible"
       id="Arrow2Lend"
       refX="0"
       refY="0"
       orient="auto"
       inkscape:stockid="Arrow2Lend">
      <path
         inkscape:connector-curvature="0"
         transform="matrix(-1.1,0,0,-1.1,-1.1,0)"
         d="M 8.7185878,4.0337352 -2.2072895,0.01601326 8.7185884,-4.0017078 c -1.7454984,2.3720609 -1.7354408,5.6174519 -6e-7,8.035443 z"
         style="fill:#ffffff;fill-opacity:1;fill-rule:evenodd;stroke:#ffffff;stroke-width:0.625;stroke-linejoin:round;stroke-opacity:1"
         id="path2667" />
    </marker>
    <clipPath
       id="clipPath2640"
       clipPathUnits="userSpaceOnUse">
      <rect
         y="98.884949"
         x="21.031858"
         height="28.189482"
         width="110.03115"
         id="rect2642"
         style="fill:#0452f7;fill-opacity:0.991936;stroke:none;stroke-width:0.481941;stroke-dasharray:1.92776, 0.481941;stop-color:#000000" />
    </clipPath>
    <marker
       inkscape:stockid="Arrow2Mend"
       orient="auto"
       refY="0"
       refX="0"
       id="Arrow2Mend-8"
       style="overflow:visible"
       inkscape:isstock="true">
      <path
         inkscape:connector-curvature="0"
         id="path2673-5"
         style="fill:#ffffff;fill-opacity:1;fill-rule:evenodd;stroke:#ffffff;stroke-width:0.625;stroke-linejoin:round;stroke-opacity:1"
         d="M 8.7185878,4.0337352 -2.2072895,0.01601326 8.7185884,-4.0017078 c -1.7454984,2.3720609 -1.7354408,5.6174519 -6e-7,8.035443 z"
         transform="scale(-0.6)" />
    </marker>
    <style
       id="style3977">.cls-1{fill:#f8b62d;}.cls-2{fill:#231815;}.cls-3{font-size:161.72px;fill:#fff;stroke:#231815;stroke-miterlimit:10;font-family:DINAlternate-Bold, DIN Alternate;font-weight:700;}.cls-4{letter-spacing:-0.02em;}.cls-5{letter-spacing:-0.07em;}</style>
    <clipPath
       clipPathUnits="userSpaceOnUse"
       id="clipPath16446">
      <rect
         style="fill:#e60005;fill-opacity:1;stroke-width:0.645721;stop-color:#000000"
         id="rect16448"
         width="104.77076"
         height="26.392632"
         x="43.939243"
         y="93.125076" />
    </clipPath>
    <marker
       inkscape:collect="always"
       inkscape:isstock="true"
       style="overflow:visible"
       id="Arrow2Mend-4-2"
       refX="0"
       refY="0"
       orient="auto"
       inkscape:stockid="Arrow2Mend">
      <path
         inkscape:connector-curvature="0"
         transform="scale(-0.6)"
         d="M 8.7185878,4.0337352 -2.2072895,0.01601326 8.7185884,-4.0017078 c -1.7454984,2.3720609 -1.7354408,5.6174519 -6e-7,8.035443 z"
         style="fill:#ffffff;fill-opacity:1;fill-rule:evenodd;stroke:#ffffff;stroke-width:0.625;stroke-linejoin:round;stroke-opacity:1"
         id="path2673-58-8" />
    </marker>
    <clipPath
       clipPathUnits="userSpaceOnUse"
       id="clipPath20586">
      <rect
         style="fill:#e60005;fill-opacity:1;stroke-width:0.645721;stop-color:#000000"
         id="rect20588"
         width="104.77076"
         height="26.392632"
         x="46.754719"
         y="92.834587" />
    </clipPath>
    <linearGradient
       gradientTransform="matrix(1.3295166,0,0,1.1743897,52.333502,-298.35541)"
       gradientUnits="userSpaceOnUse"
       y2="146.21999"
       x2="61.972919"
       y1="146.21999"
       x1="28.32818"
       id="linearGradient14513-0"
       xlink:href="#linearGradient14519"
       inkscape:collect="always" />
    <linearGradient
       inkscape:collect="always"
       id="linearGradient14519">
      <stop
         style="stop-color:#e60005;stop-opacity:1"
         offset="0"
         id="stop14515" />
      <stop
         id="stop14521"
         offset="0.48177981"
         style="stop-color:#808080;stop-opacity:0.99607843" />
      <stop
         style="stop-color:#0052ff;stop-opacity:0.9921568"
         offset="1"
         id="stop14517" />
    </linearGradient>
    <linearGradient
       gradientTransform="matrix(1.3295166,0,0,1.1743897,37.522209,-268.11123)"
       gradientUnits="userSpaceOnUse"
       y2="146.21999"
       x2="61.972919"
       y1="146.21999"
       x1="28.32818"
       id="linearGradient14513-6"
       xlink:href="#linearGradient14519"
       inkscape:collect="always" />
    <linearGradient
       inkscape:collect="always"
       xlink:href="#linearGradient14519"
       id="linearGradient14513"
       x1="28.32818"
       y1="146.21999"
       x2="61.972919"
       y2="146.21999"
       gradientUnits="userSpaceOnUse"
       gradientTransform="matrix(1.3295166,0,0,1.1743897,47.041834,-236.6121)" />
  </defs>
  <sodipodi:namedview
     lock-margins="false"
     fit-margin-bottom="20"
     fit-margin-right="20"
     fit-margin-left="20"
     fit-margin-top="20"
     inkscape:window-maximized="1"
     inkscape:window-y="23"
     inkscape:window-x="0"
     inkscape:window-height="855"
     inkscape:window-width="1440"
     inkscape:snap-global="false"
     showgrid="false"
     inkscape:document-rotation="0"
     inkscape:current-layer="layer1"
     inkscape:document-units="mm"
     inkscape:cy="105.91072"
     inkscape:cx="285.9857"
     inkscape:zoom="1.6642781"
     inkscape:pageshadow="2"
     inkscape:pageopacity="1"
     borderopacity="1.0"
     bordercolor="#666666"
     pagecolor="#ffffff"
     id="base" />
  <metadata
     id="metadata1945">
    <rdf:RDF>
      <cc:Work
         rdf:about="">
        <dc:format>image/svg+xml</dc:format>
        <dc:type
           rdf:resource="http://purl.org/dc/dcmitype/StillImage" />
        <dc:title />
      </cc:Work>
    </rdf:RDF>
  </metadata>
  <g
     transform="translate(-17.294562,-73.125076)"
     id="layer1"
     inkscape:groupmode="layer"
     inkscape:label="Layer 1">
    <g
       transform="translate(1.5258789e-5,0.50028839)"
       id="g20584"
       clip-path="url(#clipPath20586)">
      <rect
         inkscape:export-ydpi="90"
         inkscape:export-xdpi="90"
         style="font-variation-settings:normal;opacity:1;vector-effect:none;fill:url(#linearGradient14513-0);fill-opacity:1;stroke:none;stroke-width:0.11897px;stroke-linecap:butt;stroke-linejoin:miter;stroke-miterlimit:4;stroke-dasharray:none;stroke-dashoffset:0;stroke-opacity:1;stop-color:#000000;stop-opacity:1"
         id="rect2521-8-9"
         width="44.731243"
         height="33.479725"
         x="89.9963"
         y="-143.37602"
         transform="rotate(90)" />
      <rect
         inkscape:export-ydpi="90"
         inkscape:export-xdpi="90"
         style="font-variation-settings:normal;opacity:1;vector-effect:none;fill:url(#linearGradient14513-6);fill-opacity:1;stroke:none;stroke-width:0.11897px;stroke-linecap:butt;stroke-linejoin:miter;stroke-miterlimit:4;stroke-dasharray:none;stroke-dashoffset:0;stroke-opacity:1;stop-color:#000000;stop-opacity:1"
         id="rect2521-8-5"
         width="44.731243"
         height="33.479725"
         x="75.184998"
         y="-113.13189"
         transform="rotate(90)" />
      <rect
         transform="rotate(90)"
         y="-81.632713"
         x="84.704628"
         height="33.479725"
         width="44.731243"
         id="rect2521-8"
         style="font-variation-settings:normal;opacity:1;vector-effect:none;fill:url(#linearGradient14513);fill-opacity:1;stroke:none;stroke-width:0.11897px;stroke-linecap:butt;stroke-linejoin:miter;stroke-miterlimit:4;stroke-dasharray:none;stroke-dashoffset:0;stroke-opacity:1;stop-color:#000000;stop-opacity:1"
         inkscape:export-xdpi="90"
         inkscape:export-ydpi="90" />
    </g>
    <path
       style="fill:none;stroke:#ffffff;stroke-width:0.252056;stroke-linecap:butt;stroke-linejoin:miter;stroke-miterlimit:4;stroke-dasharray:0.756169, 0.756169;stroke-dashoffset:0;stroke-opacity:1"
       d="M 53.438194,106.32139 H 139.10719"
       id="path16450"
       inkscape:connector-curvature="0" />
    <g
       id="g16297"
       transform="matrix(0.88677302,0,0,0.88677302,-70.782535,8.4296367)">
      <path
         style="font-variation-settings:normal;opacity:1;vector-effect:none;fill:none;fill-opacity:1;stroke:#ffffff;stroke-width:0.665;stroke-linecap:butt;stroke-linejoin:miter;stroke-miterlimit:4;stroke-dasharray:none;stroke-dashoffset:0;stroke-opacity:1;marker-start:url(#Arrow2Mstart);marker-end:url(#marker3106);stop-color:#000000;stop-opacity:1"
         d="m 153.84469,98.78983 v 23.21823"
         id="path2976"
         inkscape:connector-curvature="0" />
      <text
         id="text2974-9"
         y="100.96665"
         x="156.97977"
         style="font-style:normal;font-weight:normal;font-size:10.5833px;line-height:1.25;font-family:sans-serif;fill:#ffffff;fill-opacity:1;stroke:none;stroke-width:0.264583"
         xml:space="preserve"><tspan
           style="font-style:italic;font-size:3.88056px;fill:#ffffff;fill-opacity:1;stroke-width:0.264583"
           y="100.96665"
           x="156.97977"
           id="tspan2972-9"
           sodipodi:role="line">depth</tspan></text>
      <g
         id="图层_1"
         data-name="图层 1"
         transform="matrix(0.02553964,0,0,0.02507286,140.18749,94.47811)">
        <circle
           id="circle3983"
           r="84.800003"
           cy="250"
           cx="250"
           class="cls-1" />
        <path
           id="path3985"
           d="m 327.3,250 c -0.26,31.93 -20.27,61.69 -50.61,72.59 a 78.28,78.28 0 0 1 -86.62,-23.7 c -20.52,-24.83 -22.88,-61.14 -6.38,-88.66 16.5,-27.52 49.76,-42.55 81.4,-36.08 A 78.17,78.17 0 0 1 327.3,250 c 0.08,9.65 15.08,9.67 15,0 a 93.46,93.46 0 0 0 -61,-86.83 c -36.08,-13.29 -78.52,-1.52 -102.67,28.34 -24.15,29.86 -27.79,72.65 -7.9,105.83 20,33.39 59.57,50.62 97.68,43.11 C 311.16,332 342,293.16 342.3,250 c 0.08,-9.65 -14.92,-9.66 -15,0 z"
           class="cls-2"
           inkscape:connector-curvature="0" />
        <path
           id="path3987"
           d="m 257.5,131.39 v -32 c 0,-9.65 -15,-9.67 -15,0 v 32 c 0,9.65 15,9.67 15,0 z"
           class="cls-2"
           inkscape:connector-curvature="0" />
        <line
           id="line3989"
           y2="119.59"
           y1="147.28"
           x2="174.71001"
           x1="190.69"
           class="cls-2" />
        <path
           id="path3991"
           d="m 197.17,143.49 -16,-27.69 c -4.83,-8.36 -17.79,-0.81 -13,7.57 l 16,27.69 c 4.83,8.36 17.79,0.81 13,-7.57 z"
           class="cls-2"
           inkscape:connector-curvature="0" />
        <line
           id="line3993"
           y2="174.71001"
           y1="190.69"
           x2="119.59"
           x1="147.28"
           class="cls-2" />
        <path
           id="path3995"
           d="m 151.06,184.22 -27.69,-16 c -8.38,-4.84 -15.94,8.12 -7.57,13 l 27.69,16 c 8.38,4.84 15.94,-8.12 7.57,-13 z"
           class="cls-2"
           inkscape:connector-curvature="0" />
        <line
           id="line3997"
           y2="250"
           y1="250"
           x2="99.419998"
           x1="131.39"
           class="cls-2" />
        <path
           id="path3999"
           d="m 131.39,242.5 h -32 c -9.65,0 -9.67,15 0,15 h 32 c 9.65,0 9.67,-15 0,-15 z"
           class="cls-2"
           inkscape:connector-curvature="0" />
        <line
           id="line4001"
           y2="325.29001"
           y1="309.31"
           x2="119.59"
           x1="147.28"
           class="cls-2" />
        <path
           id="path4003"
           d="m 143.49,302.83 -27.69,16 c -8.36,4.83 -0.81,17.79 7.57,13 l 27.69,-16 c 8.36,-4.83 0.81,-17.79 -7.57,-13 z"
           class="cls-2"
           inkscape:connector-curvature="0" />
        <line
           id="line4005"
           y2="380.41"
           y1="352.72"
           x2="174.71001"
           x1="190.69"
           class="cls-2" />
        <path
           id="path4007"
           d="m 184.22,348.94 -16,27.69 c -4.84,8.38 8.12,15.94 13,7.57 l 16,-27.69 c 4.84,-8.38 -8.12,-15.94 -13,-7.57 z"
           class="cls-2"
           inkscape:connector-curvature="0" />
        <line
           id="line4009"
           y2="400.57999"
           y1="368.60999"
           x2="250"
           x1="250"
           class="cls-2" />
        <path
           id="path4011"
           d="m 242.5,368.61 v 32 c 0,9.65 15,9.67 15,0 v -32 c 0,-9.65 -15,-9.67 -15,0 z"
           class="cls-2"
           inkscape:connector-curvature="0" />
        <line
           id="line4013"
           y2="380.41"
           y1="352.72"
           x2="325.29001"
           x1="309.31"
           class="cls-2" />
        <path
           id="path4015"
           d="m 302.83,356.51 16,27.69 c 4.83,8.36 17.79,0.81 13,-7.57 l -16,-27.69 c -4.83,-8.36 -17.79,-0.81 -13,7.57 z"
           class="cls-2"
           inkscape:connector-curvature="0" />
        <line
           id="line4017"
           y2="325.29001"
           y1="309.31"
           x2="380.41"
           x1="352.72"
           class="cls-2" />
        <path
           id="path4019"
           d="m 348.94,315.78 27.69,16 c 8.38,4.84 15.94,-8.12 7.57,-13 l -27.69,-16 c -8.38,-4.84 -15.94,8.12 -7.57,13 z"
           class="cls-2"
           inkscape:connector-curvature="0" />
        <line
           id="line4021"
           y2="250"
           y1="250"
           x2="400.57999"
           x1="368.60999"
           class="cls-2" />
        <path
           id="path4023"
           d="m 368.61,257.5 h 32 c 9.65,0 9.67,-15 0,-15 h -32 c -9.65,0 -9.67,15 0,15 z"
           class="cls-2"
           inkscape:connector-curvature="0" />
        <line
           id="line4025"
           y2="174.71001"
           y1="190.69"
           x2="380.41"
           x1="352.72"
           class="cls-2" />
        <path
           id="path4027"
           d="m 356.51,197.17 27.69,-16 c 8.36,-4.83 0.81,-17.79 -7.57,-13 l -27.69,16 c -8.36,4.83 -0.81,17.79 7.57,13 z"
           class="cls-2"
           inkscape:connector-curvature="0" />
        <line
           id="line4029"
           y2="119.59"
           y1="147.28"
           x2="325.29001"
           x1="309.31"
           class="cls-2" />
        <path
           id="path4031"
           d="m 315.78,151.06 16,-27.69 c 4.84,-8.38 -8.12,-15.94 -13,-7.57 l -16,27.69 c -4.84,8.38 8.12,15.94 13,7.57 z"
           class="cls-2"
           inkscape:connector-curvature="0" />
        <text
           id="text4039"
           transform="translate(-3.4,-30.77)"
           class="cls-3"><tspan
             id="tspan4033"
             class="cls-4" /><tspan
             id="tspan4035"
             y="0"
             x="98.940002"
             class="cls-5" /><tspan
             id="tspan4037"
             y="0"
             x="185.56" /></text>
      </g>
      <g
         transform="matrix(0.01424699,0,0,0.0139866,143.01065,117.6004)"
         data-name="图层 1"
         id="图层_1-0">
        <circle
           class="cls-1"
           cx="250"
           cy="250"
           r="84.800003"
           id="circle3983-5" />
        <path
           inkscape:connector-curvature="0"
           class="cls-2"
           d="m 327.3,250 c -0.26,31.93 -20.27,61.69 -50.61,72.59 a 78.28,78.28 0 0 1 -86.62,-23.7 c -20.52,-24.83 -22.88,-61.14 -6.38,-88.66 16.5,-27.52 49.76,-42.55 81.4,-36.08 A 78.17,78.17 0 0 1 327.3,250 c 0.08,9.65 15.08,9.67 15,0 a 93.46,93.46 0 0 0 -61,-86.83 c -36.08,-13.29 -78.52,-1.52 -102.67,28.34 -24.15,29.86 -27.79,72.65 -7.9,105.83 20,33.39 59.57,50.62 97.68,43.11 C 311.16,332 342,293.16 342.3,250 c 0.08,-9.65 -14.92,-9.66 -15,0 z"
           id="path3985-2" />
        <path
           inkscape:connector-curvature="0"
           class="cls-2"
           d="m 257.5,131.39 v -32 c 0,-9.65 -15,-9.67 -15,0 v 32 c 0,9.65 15,9.67 15,0 z"
           id="path3987-0" />
        <line
           class="cls-2"
           x1="190.69"
           x2="174.71001"
           y1="147.28"
           y2="119.59"
           id="line3989-7" />
        <path
           inkscape:connector-curvature="0"
           class="cls-2"
           d="m 197.17,143.49 -16,-27.69 c -4.83,-8.36 -17.79,-0.81 -13,7.57 l 16,27.69 c 4.83,8.36 17.79,0.81 13,-7.57 z"
           id="path3991-7" />
        <line
           class="cls-2"
           x1="147.28"
           x2="119.59"
           y1="190.69"
           y2="174.71001"
           id="line3993-9" />
        <path
           inkscape:connector-curvature="0"
           class="cls-2"
           d="m 151.06,184.22 -27.69,-16 c -8.38,-4.84 -15.94,8.12 -7.57,13 l 27.69,16 c 8.38,4.84 15.94,-8.12 7.57,-13 z"
           id="path3995-7" />
        <line
           class="cls-2"
           x1="131.39"
           x2="99.419998"
           y1="250"
           y2="250"
           id="line3997-5" />
        <path
           inkscape:connector-curvature="0"
           class="cls-2"
           d="m 131.39,242.5 h -32 c -9.65,0 -9.67,15 0,15 h 32 c 9.65,0 9.67,-15 0,-15 z"
           id="path3999-3" />
        <line
           class="cls-2"
           x1="147.28"
           x2="119.59"
           y1="309.31"
           y2="325.29001"
           id="line4001-9" />
        <path
           inkscape:connector-curvature="0"
           class="cls-2"
           d="m 143.49,302.83 -27.69,16 c -8.36,4.83 -0.81,17.79 7.57,13 l 27.69,-16 c 8.36,-4.83 0.81,-17.79 -7.57,-13 z"
           id="path4003-9" />
        <line
           class="cls-2"
           x1="190.69"
           x2="174.71001"
           y1="352.72"
           y2="380.41"
           id="line4005-4" />
        <path
           inkscape:connector-curvature="0"
           class="cls-2"
           d="m 184.22,348.94 -16,27.69 c -4.84,8.38 8.12,15.94 13,7.57 l 16,-27.69 c 4.84,-8.38 -8.12,-15.94 -13,-7.57 z"
           id="path4007-9" />
        <line
           class="cls-2"
           x1="250"
           x2="250"
           y1="368.60999"
           y2="400.57999"
           id="line4009-1" />
        <path
           inkscape:connector-curvature="0"
           class="cls-2"
           d="m 242.5,368.61 v 32 c 0,9.65 15,9.67 15,0 v -32 c 0,-9.65 -15,-9.67 -15,0 z"
           id="path4011-5" />
        <line
           class="cls-2"
           x1="309.31"
           x2="325.29001"
           y1="352.72"
           y2="380.41"
           id="line4013-9" />
        <path
           inkscape:connector-curvature="0"
           class="cls-2"
           d="m 302.83,356.51 16,27.69 c 4.83,8.36 17.79,0.81 13,-7.57 l -16,-27.69 c -4.83,-8.36 -17.79,-0.81 -13,7.57 z"
           id="path4015-8" />
        <line
           class="cls-2"
           x1="352.72"
           x2="380.41"
           y1="309.31"
           y2="325.29001"
           id="line4017-3" />
        <path
           inkscape:connector-curvature="0"
           class="cls-2"
           d="m 348.94,315.78 27.69,16 c 8.38,4.84 15.94,-8.12 7.57,-13 l -27.69,-16 c -8.38,-4.84 -15.94,8.12 -7.57,13 z"
           id="path4019-0" />
        <line
           class="cls-2"
           x1="368.60999"
           x2="400.57999"
           y1="250"
           y2="250"
           id="line4021-9" />
        <path
           inkscape:connector-curvature="0"
           class="cls-2"
           d="m 368.61,257.5 h 32 c 9.65,0 9.67,-15 0,-15 h -32 c -9.65,0 -9.67,15 0,15 z"
           id="path4023-0" />
        <line
           class="cls-2"
           x1="352.72"
           x2="380.41"
           y1="190.69"
           y2="174.71001"
           id="line4025-7" />
        <path
           inkscape:connector-curvature="0"
           class="cls-2"
           d="m 356.51,197.17 27.69,-16 c 8.36,-4.83 0.81,-17.79 -7.57,-13 l -27.69,16 c -8.36,4.83 -0.81,17.79 7.57,13 z"
           id="path4027-6" />
        <line
           class="cls-2"
           x1="309.31"
           x2="325.29001"
           y1="147.28"
           y2="119.59"
           id="line4029-8" />
        <path
           inkscape:connector-curvature="0"
           class="cls-2"
           d="m 315.78,151.06 16,-27.69 c 4.84,-8.38 -8.12,-15.94 -13,-7.57 l -16,27.69 c -4.84,8.38 8.12,15.94 13,7.57 z"
           id="path4031-3" />
        <text
           class="cls-3"
           transform="translate(-3.4,-30.77)"
           id="text4039-8"><tspan
             class="cls-4"
             id="tspan4033-6" /><tspan
             class="cls-5"
             x="98.940002"
             y="0"
             id="tspan4035-1" /><tspan
             x="185.56"
             y="0"
             id="tspan4037-9" /></text>
      </g>
    </g>
    <g
       inkscape:export-ydpi="150"
       inkscape:export-xdpi="150"
       transform="matrix(0.27970057,0,0,0.27970057,37.393869,101.84618)"
       id="84 Thermometer Full-2">
      <path
         inkscape:connector-curvature="0"
         d="m 16,30 c 2.209139,0 4,-1.790861 4,-4 0,-1.480566 -0.804398,-2.773254 -2,-3.464871 V 4.0049466 C 18,2.8976452 17.11227,2 16,2 14.895431,2 14,2.8970262 14,4.0049466 V 22.535129 C 12.804398,23.226746 12,24.519434 12,26 c 0,2.209139 1.790861,4 4,4 z m 0,2 c -3.313709,0 -6,-2.686291 -6,-6 0,-1.777005 0.772506,-3.373582 2,-4.472213 V 4.0055202 C 12,1.7870853 13.790861,0 16,0 c 2.204644,0 4,1.7933325 4,4.0055202 V 21.527787 c 1.227494,1.098631 2,2.695208 2,4.472213 0,3.313709 -2.686291,6 -6,6 z m 0,0"
         fill="#000000"
         id="Oval 245-5" />
      <path
         inkscape:connector-curvature="0"
         d="m 16,29 c 1.656854,0 3,-1.343146 3,-3 0,-1.656854 -1.343146,-3 -3,-3 -1.656854,0 -3,1.343146 -3,3 0,1.656854 1.343146,3 3,3 z m 0,0"
         fill="#FF0000"
         id="Oval 249-5" />
      <path
         sodipodi:nodetypes="sssccsss"
         inkscape:connector-curvature="0"
         d="m 16,11.710251 c -0.552285,0 -1,0.439458 -1,1.002461 V 23.997538 C 15,24.551183 15.443865,25 16,25 v 0 c 0.552285,0 1,-0.439458 1,-1.002462 V 12.712712 c 0,-0.553644 -0.443865,-1.002461 -1,-1.002461 z"
         fill="#FF0000"
         id="Rectangle-9" />
    </g>
    <g
       inkscape:export-ydpi="150"
       inkscape:export-xdpi="150"
       transform="matrix(0.02897923,0,0,0.02897923,34.624271,118.93249)"
       data-name="图层 1"
       id="图层_1-3">
      <circle
         class="cls-1"
         cx="250"
         cy="250"
         r="84.800003"
         id="circle10261" />
      <path
         inkscape:connector-curvature="0"
         class="cls-2"
         d="m 327.3,250 c -0.26,31.93 -20.27,61.69 -50.61,72.59 a 78.28,78.28 0 0 1 -86.62,-23.7 c -20.52,-24.83 -22.88,-61.14 -6.38,-88.66 16.5,-27.52 49.76,-42.55 81.4,-36.08 A 78.17,78.17 0 0 1 327.3,250 c 0.08,9.65 15.08,9.67 15,0 a 93.46,93.46 0 0 0 -61,-86.83 c -36.08,-13.29 -78.52,-1.52 -102.67,28.34 -24.15,29.86 -27.79,72.65 -7.9,105.83 20,33.39 59.57,50.62 97.68,43.11 C 311.16,332 342,293.16 342.3,250 c 0.08,-9.65 -14.92,-9.66 -15,0 z"
         id="path10263" />
      <path
         inkscape:connector-curvature="0"
         class="cls-2"
         d="m 257.5,131.39 v -32 c 0,-9.65 -15,-9.67 -15,0 v 32 c 0,9.65 15,9.67 15,0 z"
         id="path10265" />
      <line
         class="cls-2"
         x1="190.69"
         x2="174.71001"
         y1="147.28"
         y2="119.59"
         id="line10267" />
      <path
         inkscape:connector-curvature="0"
         class="cls-2"
         d="m 197.17,143.49 -16,-27.69 c -4.83,-8.36 -17.79,-0.81 -13,7.57 l 16,27.69 c 4.83,8.36 17.79,0.81 13,-7.57 z"
         id="path10269" />
      <line
         class="cls-2"
         x1="147.28"
         x2="119.59"
         y1="190.69"
         y2="174.71001"
         id="line10271" />
      <path
         inkscape:connector-curvature="0"
         class="cls-2"
         d="m 151.06,184.22 -27.69,-16 c -8.38,-4.84 -15.94,8.12 -7.57,13 l 27.69,16 c 8.38,4.84 15.94,-8.12 7.57,-13 z"
         id="path10273" />
      <line
         class="cls-2"
         x1="131.39"
         x2="99.419998"
         y1="250"
         y2="250"
         id="line10275" />
      <path
         inkscape:connector-curvature="0"
         class="cls-2"
         d="m 131.39,242.5 h -32 c -9.65,0 -9.67,15 0,15 h 32 c 9.65,0 9.67,-15 0,-15 z"
         id="path10277" />
      <line
         class="cls-2"
         x1="147.28"
         x2="119.59"
         y1="309.31"
         y2="325.29001"
         id="line10279" />
      <path
         inkscape:connector-curvature="0"
         class="cls-2"
         d="m 143.49,302.83 -27.69,16 c -8.36,4.83 -0.81,17.79 7.57,13 l 27.69,-16 c 8.36,-4.83 0.81,-17.79 -7.57,-13 z"
         id="path10281" />
      <line
         class="cls-2"
         x1="190.69"
         x2="174.71001"
         y1="352.72"
         y2="380.41"
         id="line10283" />
      <path
         inkscape:connector-curvature="0"
         class="cls-2"
         d="m 184.22,348.94 -16,27.69 c -4.84,8.38 8.12,15.94 13,7.57 l 16,-27.69 c 4.84,-8.38 -8.12,-15.94 -13,-7.57 z"
         id="path10285" />
      <line
         class="cls-2"
         x1="250"
         x2="250"
         y1="368.60999"
         y2="400.57999"
         id="line10287" />
      <path
         inkscape:connector-curvature="0"
         class="cls-2"
         d="m 242.5,368.61 v 32 c 0,9.65 15,9.67 15,0 v -32 c 0,-9.65 -15,-9.67 -15,0 z"
         id="path10289" />
      <line
         class="cls-2"
         x1="309.31"
         x2="325.29001"
         y1="352.72"
         y2="380.41"
         id="line10291" />
      <path
         inkscape:connector-curvature="0"
         class="cls-2"
         d="m 302.83,356.51 16,27.69 c 4.83,8.36 17.79,0.81 13,-7.57 l -16,-27.69 c -4.83,-8.36 -17.79,-0.81 -13,7.57 z"
         id="path10293" />
      <line
         class="cls-2"
         x1="352.72"
         x2="380.41"
         y1="309.31"
         y2="325.29001"
         id="line10295" />
      <path
         inkscape:connector-curvature="0"
         class="cls-2"
         d="m 348.94,315.78 27.69,16 c 8.38,4.84 15.94,-8.12 7.57,-13 l -27.69,-16 c -8.38,-4.84 -15.94,8.12 -7.57,13 z"
         id="path10297" />
      <line
         class="cls-2"
         x1="368.60999"
         x2="400.57999"
         y1="250"
         y2="250"
         id="line10299" />
      <path
         inkscape:connector-curvature="0"
         class="cls-2"
         d="m 368.61,257.5 h 32 c 9.65,0 9.67,-15 0,-15 h -32 c -9.65,0 -9.67,15 0,15 z"
         id="path10301" />
      <line
         class="cls-2"
         x1="352.72"
         x2="380.41"
         y1="190.69"
         y2="174.71001"
         id="line10303" />
      <path
         inkscape:connector-curvature="0"
         class="cls-2"
         d="m 356.51,197.17 27.69,-16 c 8.36,-4.83 0.81,-17.79 -7.57,-13 l -27.69,16 c -8.36,4.83 -0.81,17.79 7.57,13 z"
         id="path10305" />
      <line
         class="cls-2"
         x1="309.31"
         x2="325.29001"
         y1="147.28"
         y2="119.59"
         id="line10307" />
      <path
         inkscape:connector-curvature="0"
         class="cls-2"
         d="m 315.78,151.06 16,-27.69 c 4.84,-8.38 -8.12,-15.94 -13,-7.57 l -16,27.69 c -4.84,8.38 8.12,15.94 13,7.57 z"
         id="path10309" />
      <text
         class="cls-3"
         transform="translate(-3.4,-30.77)"
         id="text10317"><tspan
           class="cls-4"
           id="tspan10311" /><tspan
           class="cls-5"
           x="98.940002"
           y="0"
           id="tspan10313" /><tspan
           x="185.56"
           y="0"
           id="tspan10315" /></text>
    </g>
    <rect
       y="119.36408"
       x="112.98805"
       height="13.626434"
       width="30.387951"
       id="rect2521-8-96-1-9"
       style="font-variation-settings:normal;vector-effect:none;fill:#7f7f7f;fill-opacity:1;stroke:none;stroke-width:0.289493px;stroke-linecap:butt;stroke-linejoin:miter;stroke-miterlimit:4;stroke-dasharray:none;stroke-dashoffset:0;stroke-opacity:1;stop-color:#000000"
       inkscape:export-xdpi="150"
       inkscape:export-ydpi="150" />
    <rect
       y="119.36408"
       x="65.559952"
       height="13.626434"
       width="16.283607"
       id="rect2521-8-96-8-4"
       style="font-variation-settings:normal;vector-effect:none;fill:#363636;fill-opacity:1;stroke:none;stroke-width:0.211916px;stroke-linecap:butt;stroke-linejoin:miter;stroke-miterlimit:4;stroke-dasharray:none;stroke-dashoffset:0;stroke-opacity:1;stop-color:#000000"
       inkscape:export-xdpi="150"
       inkscape:export-ydpi="150" />
    <rect
       inkscape:export-ydpi="150"
       inkscape:export-xdpi="150"
       style="font-variation-settings:normal;vector-effect:none;fill:#e7ce25;fill-opacity:1;stroke:none;stroke-width:0.229007px;stroke-linecap:butt;stroke-linejoin:miter;stroke-miterlimit:4;stroke-dasharray:none;stroke-dashoffset:0;stroke-opacity:1;stop-color:#000000"
       id="rect2521-8-96-8-4-3"
       width="19.016068"
       height="13.626434"
       x="93.979294"
       y="119.36408" />
    <rect
       inkscape:export-ydpi="150"
       inkscape:export-xdpi="150"
       style="font-variation-settings:normal;vector-effect:none;fill:#7f7f7f;fill-opacity:1;stroke:none;stroke-width:0.207646px;stroke-linecap:butt;stroke-linejoin:miter;stroke-miterlimit:4;stroke-dasharray:none;stroke-dashoffset:0;stroke-opacity:1;stop-color:#000000"
       id="rect2521-8-96-1"
       width="15.633767"
       height="13.626434"
       x="81.658844"
       y="119.36408" />
    <rect
       y="119.36408"
       x="48.153004"
       height="13.626434"
       width="17.466883"
       id="rect2521-8-96"
       style="font-variation-settings:normal;vector-effect:none;fill:#7f7f7f;fill-opacity:1;stroke:none;stroke-width:0.219481px;stroke-linecap:butt;stroke-linejoin:miter;stroke-miterlimit:4;stroke-dasharray:none;stroke-dashoffset:0;stroke-opacity:1;stop-color:#000000"
       inkscape:export-xdpi="150"
       inkscape:export-ydpi="150" />
    <path
       inkscape:connector-curvature="0"
       id="path2644-1-3"
       d="M 53.422973,119.43611 H 138.1937"
       style="fill:none;stroke:#ffffff;stroke-width:0.614293;stroke-linecap:butt;stroke-linejoin:miter;stroke-miterlimit:4;stroke-dasharray:none;stroke-opacity:1;marker-end:url(#Arrow2Mend-4-2)"
       inkscape:export-xdpi="150"
       inkscape:export-ydpi="150" />
    <text
       id="text2974-8-9"
       y="123.84592"
       x="131.90555"
       style="font-style:normal;font-weight:normal;font-size:9.7763px;line-height:1.25;font-family:sans-serif;fill:#ffffff;fill-opacity:1;stroke:none;stroke-width:0.244408"
       xml:space="preserve"
       inkscape:export-xdpi="150"
       inkscape:export-ydpi="150"
       transform="scale(0.99063141,1.0094572)"><tspan
         style="font-style:italic;font-size:3.58466px;fill:#ffffff;fill-opacity:1;stroke-width:0.244408"
         y="123.84592"
         x="131.90555"
         id="tspan2972-4-3"
         sodipodi:role="line">time</tspan></text>
    <circle
       r="0.60800767"
       cy="99.887756"
       cx="41.86908"
       id="path20717"
       style="fill:#000000;fill-opacity:1;stroke:none;stroke-width:0.0988775;stroke-miterlimit:4;stroke-dasharray:0.296632, 0.296632;stroke-dashoffset:0;stop-color:#000000" />
    <circle
       style="fill:#000000;fill-opacity:1;stroke:none;stroke-width:0.0988774;stroke-miterlimit:4;stroke-dasharray:0.296632, 0.296632;stroke-dashoffset:0;stop-color:#000000"
       id="path20717-3"
       cx="41.86908"
       cy="119.4934"
       r="0.60800767" />
  </g>
</svg>
